<?xml version="1.0" encoding="UTF-8" standalone="no"?><svg xmlns="http://www.w3.org/2000/svg" xmlns:xlink="http://www.w3.org/1999/xlink" contentScriptType="application/ecmascript" contentStyleType="text/css" height="315px" preserveAspectRatio="none" style="width:218px;height:315px;" version="1.1" viewBox="0 0 218 315" width="218px" zoomAndPan="magnify"><defs/><g><!--MD5=[a6f11bb19cee6b13000111f5ad685e8b]
cluster Dependencies--><path d="M53,220 L147,220 A4.5,4.5 0 0 1 150,223 L157,240.4844 L175,240.4844 A3,3 0 0 1 178,243.4844 L178,300 A3,3 0 0 1 175,303 L53,303 A3,3 0 0 1 50,300 L50,223 A3,3 0 0 1 53,220 " fill="#FFFFFF" style="stroke: #000000; stroke-width: 1.5;"/><line style="stroke: #000000; stroke-width: 1.5;" x1="50" x2="157" y1="240.4844" y2="240.4844"/><text fill="#000000" font-family="Tahoma, sans-serif" font-size="12" font-weight="bold" lengthAdjust="spacingAndGlyphs" textLength="94" x="54" y="234.0059">Dependencies</text><!--MD5=[4338c09a15799736a91657b0a0d395f6]
entity @sprucelabs--><rect fill="#F8F8F8" height="34.4844" rx="3" ry="3" style="stroke: #383838; stroke-width: 1.0;" width="95" x="66.5" y="253"/><rect fill="#F8F8F8" height="5" style="stroke: #383838; stroke-width: 1.0;" width="10" x="61.5" y="258"/><rect fill="#F8F8F8" height="5" style="stroke: #383838; stroke-width: 1.0;" width="10" x="61.5" y="277.4844"/><text fill="#000000" font-family="Tahoma, sans-serif" font-size="12" lengthAdjust="spacingAndGlyphs" textLength="75" x="76.5" y="275.0059">@sprucelabs</text><ellipse cx="23.8492" cy="25.242" fill="#F8F8F8" rx="17.8492" ry="13.242" style="stroke: #383838; stroke-width: 0.5;"/><text fill="#000000" font-family="Tahoma, sans-serif" font-size="12" font-weight="bold" lengthAdjust="spacingAndGlyphs" textLength="21" x="13.3492" y="28.9842">src</text><!--MD5=[ef5e50216d009f7fc8286984140eef0b]
entity _error_types--><rect fill="#F8F8F8" height="34.4844" rx="3" ry="3" style="stroke: #000000; stroke-width: 0.5;" width="81" x="73.5" y="122"/><text fill="#000000" font-family="Tahoma, sans-serif" font-size="12" lengthAdjust="spacingAndGlyphs" textLength="61" x="83.5" y="144.0059">error.types</text><ellipse cx="44.7653" cy="139.2122" fill="#F8F8F8" rx="15.7653" ry="13.2122" style="stroke: #383838; stroke-width: 0.5;"/><text fill="#000000" font-family="Tahoma, sans-serif" font-size="12" lengthAdjust="spacingAndGlyphs" textLength="18" x="35.7653" y="142.9544">log</text><!--MD5=[0e4e069c9875f4565a877b4711f58911]
entity _PathResolver--><rect fill="#F8F8F8" height="34.4844" rx="3" ry="3" style="stroke: #000000; stroke-width: 0.5;" width="94" x="54" y="8"/><text fill="#000000" font-family="Tahoma, sans-serif" font-size="12" lengthAdjust="spacingAndGlyphs" textLength="74" x="64" y="30.0059">PathResolver</text><!--MD5=[b193370281563f99c6776349b0620c58]
entity _SpruceError--><rect fill="#F8F8F8" height="34.4844" rx="3" ry="3" style="stroke: #000000; stroke-width: 0.5;" width="87" x="120.5" y="65"/><text fill="#000000" font-family="Tahoma, sans-serif" font-size="12" lengthAdjust="spacingAndGlyphs" textLength="67" x="130.5" y="87.0059">SpruceError</text><!--MD5=[985fa72bf40257bc214b153f93797f6b]
link _error_types to @sprucelabs--><path d="M114,156.077 C114,179.155 114,221.7244 114,247.4902 " fill="none" id="_error_types-&gt;@sprucelabs" style="stroke: #000000; stroke-width: 0.5;"/><polygon fill="#000000" points="114,252.7203,118,243.7203,114,247.7203,110,243.7203,114,252.7203" style="stroke: #000000; stroke-width: 0.5;"/><!--MD5=[fb7e51327dc52a18e388aa52dae85346]
link log to @sprucelabs--><path d="M51.1233,151.448 C62.7217,173.132 88.0489,220.4828 102.7749,248.014 " fill="none" id="log-&gt;@sprucelabs" style="stroke: #000000; stroke-width: 0.5;"/><polygon fill="#000000" points="105.2195,252.5843,104.5017,242.7616,102.8612,248.1754,97.4474,246.5349,105.2195,252.5843" style="stroke: #000000; stroke-width: 0.5;"/><!--MD5=[8f2529c27690bfd357082c04ee45f399]
link _PathResolver to _error_types--><path d="M102.8626,42.047 C105.1505,61.758 109.038,95.248 111.562,116.993 " fill="none" id="_PathResolver-&gt;_error_types" style="stroke: #000000; stroke-width: 0.5;"/><polygon fill="#000000" points="112.141,121.983,115.0755,112.5815,111.5639,117.0164,107.129,113.5048,112.141,121.983" style="stroke: #000000; stroke-width: 0.5;"/><!--MD5=[ff116c0331df2d916bc783933e14c188]
link _PathResolver to log--><path d="M92.9766,42.047 C82.2922,63.416 63.5105,100.979 52.8927,122.215 " fill="none" id="_PathResolver-&gt;log" style="stroke: #000000; stroke-width: 0.5;"/><polygon fill="#000000" points="50.6307,126.739,58.2329,120.4775,52.8665,122.2667,51.0773,116.9003,50.6307,126.739" style="stroke: #000000; stroke-width: 0.5;"/><!--MD5=[82ff5fdebab05cb4b1fd9b9492e3a14e]
link _PathResolver to _SpruceError--><path d="M119.561,42.204 C126.421,48.193 134.272,55.047 141.447,61.311 " fill="none" id="_PathResolver-&gt;_SpruceError" style="stroke: #000000; stroke-width: 0.5;"/><polygon fill="#000000" points="145.354,64.721,141.2062,55.7882,141.5879,61.4321,135.944,61.8139,145.354,64.721" style="stroke: #000000; stroke-width: 0.5;"/><!--MD5=[4f3c07081d09017a6fc46529e3c3c51d]
link _SpruceError to @sprucelabs--><path d="M164.95,99.158 C165.449,114.091 165.245,136.803 161,156 C153.548,189.701 136.629,226.1323 125.257,248.2587 " fill="none" id="_SpruceError-&gt;@sprucelabs" style="stroke: #000000; stroke-width: 0.5;"/><polygon fill="#000000" points="122.921,252.7569,130.6195,246.6142,125.2259,248.3199,123.5203,242.9263,122.921,252.7569" style="stroke: #000000; stroke-width: 0.5;"/><!--MD5=[1119ecd846132f39b8c1f622bb49462a]
link _SpruceError to _error_types--><path d="M149.269,99.204 C143.925,105.082 137.824,111.793 132.216,117.963 " fill="none" id="_SpruceError-&gt;_error_types" style="stroke: #000000; stroke-width: 0.5;"/><polygon fill="#000000" points="128.799,121.721,137.8124,117.7512,132.1619,118.0209,131.8922,112.3705,128.799,121.721" style="stroke: #000000; stroke-width: 0.5;"/><!--MD5=[cffe1a32e19fc4130034a679b2c2a3b2]
link <b>src</b> to _PathResolver--><path d="M42.0469,25 C44.2058,25 46.3647,25 48.5237,25 " fill="none" id="&lt;b&gt;src&lt;/b&gt;-&gt;_PathResolver" style="stroke: #000000; stroke-width: 1.0;"/><polygon fill="#000000" points="53.5612,25,44.5612,21,48.5612,25,44.5612,29,53.5612,25" style="stroke: #000000; stroke-width: 1.0;"/><script type="text/plantuml"><![CDATA[MD5=[0202d159108e05ee74cc768cfdb71264]
@startuml

scale max 1920 width
top to bottom direction

skinparam nodesep 12
skinparam ranksep 23
skinparam monochrome true
skinparam shadowing false
skinparam defaultFontName Tahoma
skinparam defaultFontSize 12
skinparam roundCorner 6
skinparam dpi 150
skinparam arrowColor black
skinparam arrowThickness 0.5
skinparam packageTitleAlignment left

skinparam usecase {
  borderThickness 0.5
}

skinparam rectangle {
  borderThickness 0.5
}

skinparam component {
  borderThickness 1
}


(<b>src</b>)
rectangle "error.types" as _error_types
(log)
rectangle "PathResolver" as _PathResolver
rectangle "SpruceError" as _SpruceError

package "Dependencies" {
  [@sprucelabs]
}

_error_types ----> [@sprucelabs]
(log) ----> [@sprucelabs]
_PathResolver --> _error_types
_PathResolver --> (log)
_PathResolver --> _SpruceError
_SpruceError ----> [@sprucelabs]
_SpruceError --> _error_types
(<b>src</b>) -[thickness=1]> _PathResolver

@enduml


' View and edit on https://arkit.pro
]]></script></g></svg>